<svg version="1.1" id="Layer_2" xmlns="http://www.w3.org/2000/svg" xmlns:xlink="http://www.w3.org/1999/xlink" x="0px" y="0px"
	 viewBox="0 0 55 63" style="enable-background:new 0 0 55 63;" xml:space="preserve">
<style type="text/css">
	.st0{fill:#F4EB5A;}
</style>
<g>
	<path class="st0" d="M12.3,26.7V13.16h2.5V26.7h9.5v2.26h-9.72C13.3,28.96,12.3,27.98,12.3,26.7z"/>
	<path class="st0" d="M41.78,15.46h-4.72v11.32h4.72v2.28H30.02v-2.28h4.72V15.46h-4.72V13.2h11.76V15.46z"/>
	<path class="st0" d="M14.58,43.88h7.44v-6.74h2.28V53h-2.28v-6.82h-7.44V53H12.3V37.14h2.28V43.88z"/>
	<path class="st0" d="M29.9,50.72V39.4c0.02-1.24,1.04-2.28,2.32-2.28h7.38c1.28,0,2.3,1.06,2.3,2.3v11.3c0,1.26-1.02,2.28-2.3,2.28
		h-7.38C30.94,53,29.9,51.98,29.9,50.72z M39.58,50.72v-11.3h-7.36v11.3H39.58z"/>
</g>
</svg>